G04 #@! TF.GenerationSoftware,KiCad,Pcbnew,(6.0.5-0)*
G04 #@! TF.CreationDate,2022-09-11T11:11:37+09:00*
G04 #@! TF.ProjectId,X68k-BusExtender,5836386b-2d42-4757-9345-7874656e6465,rev?*
G04 #@! TF.SameCoordinates,Original*
G04 #@! TF.FileFunction,Copper,L2,Bot*
G04 #@! TF.FilePolarity,Positive*
%FSLAX46Y46*%
G04 Gerber Fmt 4.6, Leading zero omitted, Abs format (unit mm)*
G04 Created by KiCad (PCBNEW (6.0.5-0)) date 2022-09-11 11:11:37*
%MOMM*%
%LPD*%
G01*
G04 APERTURE LIST*
G04 Aperture macros list*
%AMRoundRect*
0 Rectangle with rounded corners*
0 $1 Rounding radius*
0 $2 $3 $4 $5 $6 $7 $8 $9 X,Y pos of 4 corners*
0 Add a 4 corners polygon primitive as box body*
4,1,4,$2,$3,$4,$5,$6,$7,$8,$9,$2,$3,0*
0 Add four circle primitives for the rounded corners*
1,1,$1+$1,$2,$3*
1,1,$1+$1,$4,$5*
1,1,$1+$1,$6,$7*
1,1,$1+$1,$8,$9*
0 Add four rect primitives between the rounded corners*
20,1,$1+$1,$2,$3,$4,$5,0*
20,1,$1+$1,$4,$5,$6,$7,0*
20,1,$1+$1,$6,$7,$8,$9,0*
20,1,$1+$1,$8,$9,$2,$3,0*%
G04 Aperture macros list end*
G04 #@! TA.AperFunction,ConnectorPad*
%ADD10RoundRect,0.300000X-4.200000X-0.450000X4.200000X-0.450000X4.200000X0.450000X-4.200000X0.450000X0*%
G04 #@! TD*
G04 #@! TA.AperFunction,ComponentPad*
%ADD11C,1.600000*%
G04 #@! TD*
G04 #@! TA.AperFunction,ViaPad*
%ADD12C,0.800000*%
G04 #@! TD*
G04 #@! TA.AperFunction,Conductor*
%ADD13C,1.500000*%
G04 #@! TD*
G04 #@! TA.AperFunction,Conductor*
%ADD14C,0.250000*%
G04 #@! TD*
G04 APERTURE END LIST*
D10*
G04 #@! TO.P,U1,B1,GND*
G04 #@! TO.N,Net-(U1-PadA1)*
X33020000Y-156210000D03*
G04 #@! TO.P,U1,B2,CLK10M*
G04 #@! TO.N,Net-(U1-PadB2)*
X33020000Y-153670000D03*
G04 #@! TO.P,U1,B3,~{CLK10M}*
G04 #@! TO.N,Net-(U1-PadB3)*
X33020000Y-151130000D03*
G04 #@! TO.P,U1,B4,E*
G04 #@! TO.N,Net-(U1-PadB4)*
X33020000Y-148590000D03*
G04 #@! TO.P,U1,B5,AB1*
G04 #@! TO.N,Net-(U1-PadB5)*
X33020000Y-146050000D03*
G04 #@! TO.P,U1,B6,AB2*
G04 #@! TO.N,Net-(U1-PadB6)*
X33020000Y-143510000D03*
G04 #@! TO.P,U1,B7,AB3*
G04 #@! TO.N,Net-(U1-PadB7)*
X33020000Y-140970000D03*
G04 #@! TO.P,U1,B8,AB4*
G04 #@! TO.N,Net-(U1-PadB8)*
X33020000Y-138430000D03*
G04 #@! TO.P,U1,B9,AB5*
G04 #@! TO.N,Net-(U1-PadB9)*
X33020000Y-135890000D03*
G04 #@! TO.P,U1,B10,AB6*
G04 #@! TO.N,Net-(U1-PadB10)*
X33020000Y-133350000D03*
G04 #@! TO.P,U1,B11,GND*
G04 #@! TO.N,Net-(U1-PadA1)*
X33020000Y-130810000D03*
G04 #@! TO.P,U1,B12,AB7*
G04 #@! TO.N,Net-(U1-PadB12)*
X33020000Y-128270000D03*
G04 #@! TO.P,U1,B13,AB8*
G04 #@! TO.N,Net-(U1-PadB13)*
X33020000Y-125730000D03*
G04 #@! TO.P,U1,B14,AB9*
G04 #@! TO.N,Net-(U1-PadB14)*
X33020000Y-123190000D03*
G04 #@! TO.P,U1,B15,AB10*
G04 #@! TO.N,Net-(U1-PadB15)*
X33020000Y-120650000D03*
G04 #@! TO.P,U1,B16,AB11*
G04 #@! TO.N,Net-(U1-PadB16)*
X33020000Y-118110000D03*
G04 #@! TO.P,U1,B17,AB12*
G04 #@! TO.N,Net-(U1-PadB17)*
X33020000Y-115570000D03*
G04 #@! TO.P,U1,B18,AB13*
G04 #@! TO.N,Net-(U1-PadB18)*
X33020000Y-113030000D03*
G04 #@! TO.P,U1,B19,AB14*
G04 #@! TO.N,Net-(U1-PadB19)*
X33020000Y-110490000D03*
G04 #@! TO.P,U1,B20,AB15*
G04 #@! TO.N,Net-(U1-PadB20)*
X33020000Y-107950000D03*
G04 #@! TO.P,U1,B21,GND*
G04 #@! TO.N,Net-(U1-PadA1)*
X33020000Y-105410000D03*
G04 #@! TO.P,U1,B22,AB16*
G04 #@! TO.N,Net-(U1-PadB22)*
X33020000Y-102870000D03*
G04 #@! TO.P,U1,B23,AB17*
G04 #@! TO.N,Net-(U1-PadB23)*
X33020000Y-100330000D03*
G04 #@! TO.P,U1,B24,AB18*
G04 #@! TO.N,Net-(U1-PadB24)*
X33020000Y-97790000D03*
G04 #@! TO.P,U1,B25,AB19*
G04 #@! TO.N,Net-(U1-PadB25)*
X33020000Y-95250000D03*
G04 #@! TO.P,U1,B26,AB20*
G04 #@! TO.N,Net-(U1-PadB26)*
X33020000Y-92710000D03*
G04 #@! TO.P,U1,B27,AB21*
G04 #@! TO.N,Net-(U1-PadB27)*
X33020000Y-90170000D03*
G04 #@! TO.P,U1,B28,AB22*
G04 #@! TO.N,Net-(U1-PadB28)*
X33020000Y-87630000D03*
G04 #@! TO.P,U1,B29,AB23*
G04 #@! TO.N,Net-(U1-PadB29)*
X33020000Y-85090000D03*
G04 #@! TO.P,U1,B30,IDDIR*
G04 #@! TO.N,Net-(U1-PadB30)*
X33020000Y-82550000D03*
G04 #@! TO.P,U1,B31,RESVB*
G04 #@! TO.N,unconnected-(U1-PadB31)*
X33020000Y-80010000D03*
G04 #@! TO.P,U1,B32,HSYNC*
G04 #@! TO.N,Net-(U1-PadB32)*
X33020000Y-77470000D03*
G04 #@! TO.P,U1,B33,VSYNC*
G04 #@! TO.N,Net-(U1-PadB33)*
X33020000Y-74930000D03*
G04 #@! TO.P,U1,B34,~{DONE}*
G04 #@! TO.N,Net-(U1-PadB34)*
X33020000Y-72390000D03*
G04 #@! TO.P,U1,B35,~{DTC}*
G04 #@! TO.N,Net-(U1-PadB35)*
X33020000Y-69850000D03*
G04 #@! TO.P,U1,B36,~{EXREQ}*
G04 #@! TO.N,Net-(U1-PadB36)*
X33020000Y-67310000D03*
G04 #@! TO.P,U1,B37,~{EXACK}*
G04 #@! TO.N,Net-(U1-PadB37)*
X33020000Y-64770000D03*
G04 #@! TO.P,U1,B38,~{EXPCL}*
G04 #@! TO.N,Net-(U1-PadB38)*
X33020000Y-62230000D03*
G04 #@! TO.P,U1,B39,~{EXOWN}*
G04 #@! TO.N,Net-(U1-PadB39)*
X33020000Y-59690000D03*
G04 #@! TO.P,U1,B40,~{EXNMI}*
G04 #@! TO.N,Net-(U1-PadB40)*
X33020000Y-57150000D03*
G04 #@! TO.P,U1,B41,GND*
G04 #@! TO.N,Net-(U1-PadA1)*
X33020000Y-54610000D03*
G04 #@! TO.P,U1,B42,~{IRQ2}*
G04 #@! TO.N,Net-(U1-PadB42)*
X33020000Y-52070000D03*
G04 #@! TO.P,U1,B43,~{IRQ4}*
G04 #@! TO.N,Net-(U1-PadB43)*
X33020000Y-49530000D03*
G04 #@! TO.P,U1,B44,~{IACK2}*
G04 #@! TO.N,Net-(U1-PadB44)*
X33020000Y-46990000D03*
G04 #@! TO.P,U1,B45,~{IACK4}*
G04 #@! TO.N,Net-(U1-PadB45)*
X33020000Y-44450000D03*
G04 #@! TO.P,U1,B46,~{BR}*
G04 #@! TO.N,Net-(U1-PadB46)*
X33020000Y-41910000D03*
G04 #@! TO.P,U1,B47,~{BG}*
G04 #@! TO.N,Net-(U1-PadB47)*
X33020000Y-39370000D03*
G04 #@! TO.P,U1,B48,~{BGACK}*
G04 #@! TO.N,Net-(U1-PadB48)*
X33020000Y-36830000D03*
G04 #@! TO.P,U1,B49,VCC1*
G04 #@! TO.N,Net-(U1-PadA49)*
X33020000Y-34290000D03*
G04 #@! TO.P,U1,B50,VCC1*
X33020000Y-31750000D03*
G04 #@! TD*
D11*
G04 #@! TO.P,U2,A1,GND*
G04 #@! TO.N,Net-(U1-PadA1)*
X188976000Y-159512000D03*
G04 #@! TO.P,U2,A2,CLK20M*
G04 #@! TO.N,Net-(U1-PadA2)*
X188976000Y-156972000D03*
G04 #@! TO.P,U2,A3,GND*
G04 #@! TO.N,Net-(U1-PadA1)*
X188976000Y-154432000D03*
G04 #@! TO.P,U2,A4,DB0*
G04 #@! TO.N,Net-(U1-PadA4)*
X188976000Y-151892000D03*
G04 #@! TO.P,U2,A5,DB1*
G04 #@! TO.N,Net-(U1-PadA5)*
X188976000Y-149352000D03*
G04 #@! TO.P,U2,A6,DB2*
G04 #@! TO.N,Net-(U1-PadA6)*
X188976000Y-146812000D03*
G04 #@! TO.P,U2,A7,DB3*
G04 #@! TO.N,Net-(U1-PadA7)*
X188976000Y-144272000D03*
G04 #@! TO.P,U2,A8,DB4*
G04 #@! TO.N,Net-(U1-PadA8)*
X188976000Y-141732000D03*
G04 #@! TO.P,U2,A9,DB5*
G04 #@! TO.N,Net-(U1-PadA9)*
X188976000Y-139192000D03*
G04 #@! TO.P,U2,A10,DB6*
G04 #@! TO.N,Net-(U1-PadA10)*
X188976000Y-136652000D03*
G04 #@! TO.P,U2,A11,GND*
G04 #@! TO.N,Net-(U1-PadA1)*
X188976000Y-134112000D03*
G04 #@! TO.P,U2,A12,DB7*
G04 #@! TO.N,Net-(U1-PadA12)*
X188976000Y-131572000D03*
G04 #@! TO.P,U2,A13,DB8*
G04 #@! TO.N,Net-(U1-PadA13)*
X188976000Y-129032000D03*
G04 #@! TO.P,U2,A14,DB9*
G04 #@! TO.N,Net-(U1-PadA14)*
X188976000Y-126492000D03*
G04 #@! TO.P,U2,A15,DB10*
G04 #@! TO.N,Net-(U1-PadA15)*
X188976000Y-123952000D03*
G04 #@! TO.P,U2,A16,DB11*
G04 #@! TO.N,Net-(U1-PadA16)*
X188976000Y-121412000D03*
G04 #@! TO.P,U2,A17,DB12*
G04 #@! TO.N,Net-(U1-PadA17)*
X188976000Y-118872000D03*
G04 #@! TO.P,U2,A18,DB13*
G04 #@! TO.N,Net-(U1-PadA18)*
X188976000Y-116332000D03*
G04 #@! TO.P,U2,A19,DB14*
G04 #@! TO.N,Net-(U1-PadA19)*
X188976000Y-113792000D03*
G04 #@! TO.P,U2,A20,DB15*
G04 #@! TO.N,Net-(U1-PadA20)*
X188976000Y-111252000D03*
G04 #@! TO.P,U2,A21,GND*
G04 #@! TO.N,Net-(U1-PadA1)*
X188976000Y-108712000D03*
G04 #@! TO.P,U2,A22,+12V*
G04 #@! TO.N,Net-(U1-PadA22)*
X188976000Y-106172000D03*
G04 #@! TO.P,U2,A23,+12V*
X188976000Y-103632000D03*
G04 #@! TO.P,U2,A24,FC0*
G04 #@! TO.N,Net-(U1-PadA24)*
X188976000Y-101092000D03*
G04 #@! TO.P,U2,A25,FC1*
G04 #@! TO.N,Net-(U1-PadA25)*
X188976000Y-98552000D03*
G04 #@! TO.P,U2,A26,FC2*
G04 #@! TO.N,Net-(U1-PadA26)*
X188976000Y-96012000D03*
G04 #@! TO.P,U2,A27,~{AS}*
G04 #@! TO.N,Net-(U1-PadA27)*
X188976000Y-93472000D03*
G04 #@! TO.P,U2,A28,~{LDS}*
G04 #@! TO.N,Net-(U1-PadA28)*
X188976000Y-90932000D03*
G04 #@! TO.P,U2,A29,~{UDS}*
G04 #@! TO.N,Net-(U1-PadA29)*
X188976000Y-88392000D03*
G04 #@! TO.P,U2,A30,R/~{W}*
G04 #@! TO.N,Net-(U1-PadA30)*
X188976000Y-85852000D03*
G04 #@! TO.P,U2,A31,RESVA*
G04 #@! TO.N,unconnected-(U2-PadA31)*
X188976000Y-83312000D03*
G04 #@! TO.P,U2,A32,-12V*
G04 #@! TO.N,Net-(U1-PadA32)*
X188976000Y-80772000D03*
G04 #@! TO.P,U2,A33,-12V*
X188976000Y-78232000D03*
G04 #@! TO.P,U2,A34,~{VMA}*
G04 #@! TO.N,Net-(U1-PadA34)*
X188976000Y-75692000D03*
G04 #@! TO.P,U2,A35,~{EXVPA}*
G04 #@! TO.N,Net-(U1-PadA35)*
X188976000Y-73152000D03*
G04 #@! TO.P,U2,A36,~{DTACK}*
G04 #@! TO.N,Net-(U1-PadA36)*
X188976000Y-70612000D03*
G04 #@! TO.P,U2,A37,~{EXRESET}*
G04 #@! TO.N,Net-(U1-PadA37)*
X188976000Y-68072000D03*
G04 #@! TO.P,U2,A38,~{HALT}*
G04 #@! TO.N,Net-(U1-PadA38)*
X188976000Y-65532000D03*
G04 #@! TO.P,U2,A39,~{EXBERR}*
G04 #@! TO.N,Net-(U1-PadA39)*
X188976000Y-62992000D03*
G04 #@! TO.P,U2,A40,~{EXPWON}*
G04 #@! TO.N,Net-(U1-PadA40)*
X188976000Y-60452000D03*
G04 #@! TO.P,U2,A41,GND*
G04 #@! TO.N,Net-(U1-PadA1)*
X188976000Y-57912000D03*
G04 #@! TO.P,U2,A42,VCC2*
G04 #@! TO.N,Net-(U1-PadA42)*
X188976000Y-55372000D03*
G04 #@! TO.P,U2,A43,VCC2*
X188976000Y-52832000D03*
G04 #@! TO.P,U2,A44,SELEN*
G04 #@! TO.N,Net-(U1-PadA44)*
X188976000Y-50292000D03*
G04 #@! TO.P,U2,A45,CASRDEN*
G04 #@! TO.N,Net-(U1-PadA45)*
X188976000Y-47752000D03*
G04 #@! TO.P,U2,A46,CASWRL*
G04 #@! TO.N,Net-(U1-PadA46)*
X188976000Y-45212000D03*
G04 #@! TO.P,U2,A47,CASWRU*
G04 #@! TO.N,Net-(U1-PadA47)*
X188976000Y-42672000D03*
G04 #@! TO.P,U2,A48,INH2*
G04 #@! TO.N,Net-(U1-PadA48)*
X188976000Y-40132000D03*
G04 #@! TO.P,U2,A49,VCC1*
G04 #@! TO.N,Net-(U1-PadA49)*
X188976000Y-37592000D03*
G04 #@! TO.P,U2,A50,VCC1*
X188976000Y-35052000D03*
G04 #@! TO.P,U2,B1,GND*
G04 #@! TO.N,Net-(U1-PadA1)*
X194056000Y-159512000D03*
G04 #@! TO.P,U2,B2,CLK10M*
G04 #@! TO.N,Net-(U1-PadB2)*
X194056000Y-156972000D03*
G04 #@! TO.P,U2,B3,~{CLK10M}*
G04 #@! TO.N,Net-(U1-PadB3)*
X194056000Y-154432000D03*
G04 #@! TO.P,U2,B4,E*
G04 #@! TO.N,Net-(U1-PadB4)*
X194056000Y-151892000D03*
G04 #@! TO.P,U2,B5,AB1*
G04 #@! TO.N,Net-(U1-PadB5)*
X194056000Y-149352000D03*
G04 #@! TO.P,U2,B6,AB2*
G04 #@! TO.N,Net-(U1-PadB6)*
X194056000Y-146812000D03*
G04 #@! TO.P,U2,B7,AB3*
G04 #@! TO.N,Net-(U1-PadB7)*
X194056000Y-144272000D03*
G04 #@! TO.P,U2,B8,AB4*
G04 #@! TO.N,Net-(U1-PadB8)*
X194056000Y-141732000D03*
G04 #@! TO.P,U2,B9,AB5*
G04 #@! TO.N,Net-(U1-PadB9)*
X194056000Y-139192000D03*
G04 #@! TO.P,U2,B10,AB6*
G04 #@! TO.N,Net-(U1-PadB10)*
X194056000Y-136652000D03*
G04 #@! TO.P,U2,B11,GND*
G04 #@! TO.N,Net-(U1-PadA1)*
X194056000Y-134112000D03*
G04 #@! TO.P,U2,B12,AB7*
G04 #@! TO.N,Net-(U1-PadB12)*
X194056000Y-131572000D03*
G04 #@! TO.P,U2,B13,AB8*
G04 #@! TO.N,Net-(U1-PadB13)*
X194056000Y-129032000D03*
G04 #@! TO.P,U2,B14,AB9*
G04 #@! TO.N,Net-(U1-PadB14)*
X194056000Y-126492000D03*
G04 #@! TO.P,U2,B15,AB10*
G04 #@! TO.N,Net-(U1-PadB15)*
X194056000Y-123952000D03*
G04 #@! TO.P,U2,B16,AB11*
G04 #@! TO.N,Net-(U1-PadB16)*
X194056000Y-121412000D03*
G04 #@! TO.P,U2,B17,AB12*
G04 #@! TO.N,Net-(U1-PadB17)*
X194056000Y-118872000D03*
G04 #@! TO.P,U2,B18,AB13*
G04 #@! TO.N,Net-(U1-PadB18)*
X194056000Y-116332000D03*
G04 #@! TO.P,U2,B19,AB14*
G04 #@! TO.N,Net-(U1-PadB19)*
X194056000Y-113792000D03*
G04 #@! TO.P,U2,B20,AB15*
G04 #@! TO.N,Net-(U1-PadB20)*
X194056000Y-111252000D03*
G04 #@! TO.P,U2,B21,GND*
G04 #@! TO.N,Net-(U1-PadA1)*
X194056000Y-108712000D03*
G04 #@! TO.P,U2,B22,AB16*
G04 #@! TO.N,Net-(U1-PadB22)*
X194056000Y-106172000D03*
G04 #@! TO.P,U2,B23,AB17*
G04 #@! TO.N,Net-(U1-PadB23)*
X194056000Y-103632000D03*
G04 #@! TO.P,U2,B24,AB18*
G04 #@! TO.N,Net-(U1-PadB24)*
X194056000Y-101092000D03*
G04 #@! TO.P,U2,B25,AB19*
G04 #@! TO.N,Net-(U1-PadB25)*
X194056000Y-98552000D03*
G04 #@! TO.P,U2,B26,AB20*
G04 #@! TO.N,Net-(U1-PadB26)*
X194056000Y-96012000D03*
G04 #@! TO.P,U2,B27,AB21*
G04 #@! TO.N,Net-(U1-PadB27)*
X194056000Y-93472000D03*
G04 #@! TO.P,U2,B28,AB22*
G04 #@! TO.N,Net-(U1-PadB28)*
X194056000Y-90932000D03*
G04 #@! TO.P,U2,B29,AB23*
G04 #@! TO.N,Net-(U1-PadB29)*
X194056000Y-88392000D03*
G04 #@! TO.P,U2,B30,IDDIR*
G04 #@! TO.N,Net-(U1-PadB30)*
X194056000Y-85852000D03*
G04 #@! TO.P,U2,B31,RESVB*
G04 #@! TO.N,unconnected-(U2-PadB31)*
X194056000Y-83312000D03*
G04 #@! TO.P,U2,B32,HSYNC*
G04 #@! TO.N,Net-(U1-PadB32)*
X194056000Y-80772000D03*
G04 #@! TO.P,U2,B33,VSYNC*
G04 #@! TO.N,Net-(U1-PadB33)*
X194056000Y-78232000D03*
G04 #@! TO.P,U2,B34,~{DONE}*
G04 #@! TO.N,Net-(U1-PadB34)*
X194056000Y-75692000D03*
G04 #@! TO.P,U2,B35,~{DTC}*
G04 #@! TO.N,Net-(U1-PadB35)*
X194056000Y-73152000D03*
G04 #@! TO.P,U2,B36,~{EXREQ}*
G04 #@! TO.N,Net-(U1-PadB36)*
X194056000Y-70612000D03*
G04 #@! TO.P,U2,B37,~{EXACK}*
G04 #@! TO.N,Net-(U1-PadB37)*
X194056000Y-68072000D03*
G04 #@! TO.P,U2,B38,~{EXPCL}*
G04 #@! TO.N,Net-(U1-PadB38)*
X194056000Y-65532000D03*
G04 #@! TO.P,U2,B39,~{EXOWN}*
G04 #@! TO.N,Net-(U1-PadB39)*
X194056000Y-62992000D03*
G04 #@! TO.P,U2,B40,~{EXNMI}*
G04 #@! TO.N,Net-(U1-PadB40)*
X194056000Y-60452000D03*
G04 #@! TO.P,U2,B41,GND*
G04 #@! TO.N,Net-(U1-PadA1)*
X194056000Y-57912000D03*
G04 #@! TO.P,U2,B42,~{IRQ2}*
G04 #@! TO.N,Net-(U1-PadB42)*
X194056000Y-55372000D03*
G04 #@! TO.P,U2,B43,~{IRQ4}*
G04 #@! TO.N,Net-(U1-PadB43)*
X194056000Y-52832000D03*
G04 #@! TO.P,U2,B44,~{IACK2}*
G04 #@! TO.N,Net-(U1-PadB44)*
X194056000Y-50292000D03*
G04 #@! TO.P,U2,B45,~{IACK4}*
G04 #@! TO.N,Net-(U1-PadB45)*
X194056000Y-47752000D03*
G04 #@! TO.P,U2,B46,~{BR}*
G04 #@! TO.N,Net-(U1-PadB46)*
X194056000Y-45212000D03*
G04 #@! TO.P,U2,B47,~{BG}*
G04 #@! TO.N,Net-(U1-PadB47)*
X194056000Y-42672000D03*
G04 #@! TO.P,U2,B48,~{BGACK}*
G04 #@! TO.N,Net-(U1-PadB48)*
X194056000Y-40132000D03*
G04 #@! TO.P,U2,B49,VCC1*
G04 #@! TO.N,Net-(U1-PadA49)*
X194056000Y-37592000D03*
G04 #@! TO.P,U2,B50,VCC1*
X194056000Y-35052000D03*
G04 #@! TD*
D12*
G04 #@! TO.N,Net-(U1-PadA1)*
X50800000Y-130810000D03*
X50800000Y-105410000D03*
X50800000Y-156210000D03*
X50800000Y-54610000D03*
G04 #@! TO.N,Net-(U1-PadA49)*
X50800000Y-31750000D03*
X50800000Y-34290000D03*
G04 #@! TD*
D13*
G04 #@! TO.N,Net-(U1-PadA1)*
X45720000Y-105410000D02*
X182880000Y-105410000D01*
D14*
X187198000Y-56642000D02*
X185166000Y-54610000D01*
D13*
X45720000Y-156210000D02*
X182880000Y-156210000D01*
D14*
X194056000Y-159512000D02*
X192151000Y-159512000D01*
X187198000Y-132842000D02*
X185166000Y-130810000D01*
X190881000Y-56642000D02*
X187198000Y-56642000D01*
X194056000Y-57912000D02*
X192151000Y-57912000D01*
X194056000Y-108712000D02*
X192151000Y-108712000D01*
D13*
X45720000Y-54610000D02*
X182880000Y-54610000D01*
D14*
X190881000Y-107442000D02*
X187198000Y-107442000D01*
X185166000Y-156210000D02*
X182880000Y-156210000D01*
D13*
X33020000Y-54610000D02*
X45720000Y-54610000D01*
D14*
X185166000Y-54610000D02*
X182880000Y-54610000D01*
X187198000Y-107442000D02*
X185166000Y-105410000D01*
X190881000Y-158242000D02*
X187198000Y-158242000D01*
D13*
X33020000Y-156210000D02*
X45720000Y-156210000D01*
D14*
X185166000Y-130810000D02*
X182880000Y-130810000D01*
X192151000Y-108712000D02*
X190881000Y-107442000D01*
D13*
X33020000Y-105410000D02*
X45720000Y-105410000D01*
D14*
X192151000Y-57912000D02*
X190881000Y-56642000D01*
X192151000Y-159512000D02*
X190881000Y-158242000D01*
X192151000Y-134112000D02*
X190881000Y-132842000D01*
X185166000Y-105410000D02*
X182880000Y-105410000D01*
X194056000Y-134112000D02*
X192151000Y-134112000D01*
X190881000Y-132842000D02*
X187198000Y-132842000D01*
X187198000Y-158242000D02*
X185166000Y-156210000D01*
D13*
X45720000Y-130810000D02*
X182880000Y-130810000D01*
X33020000Y-130810000D02*
X45720000Y-130810000D01*
G04 #@! TO.N,Net-(U1-PadA49)*
X33020000Y-34290000D02*
X45720000Y-34290000D01*
D14*
X192151000Y-37592000D02*
X190881000Y-36322000D01*
D13*
X45720000Y-31750000D02*
X182880000Y-31750000D01*
D14*
X192151000Y-35052000D02*
X190881000Y-33782000D01*
D13*
X45720000Y-34290000D02*
X182880000Y-34290000D01*
D14*
X185166000Y-31750000D02*
X182880000Y-31750000D01*
X190881000Y-33782000D02*
X187198000Y-33782000D01*
X185166000Y-34290000D02*
X182880000Y-34290000D01*
X194056000Y-35052000D02*
X192151000Y-35052000D01*
X190881000Y-36322000D02*
X187198000Y-36322000D01*
X187198000Y-33782000D02*
X185166000Y-31750000D01*
X187198000Y-36322000D02*
X185166000Y-34290000D01*
D13*
X33020000Y-31750000D02*
X45720000Y-31750000D01*
D14*
X194056000Y-37592000D02*
X192151000Y-37592000D01*
G04 #@! TO.N,Net-(U1-PadB2)*
X192151000Y-156972000D02*
X190881000Y-155702000D01*
X190881000Y-155702000D02*
X187198000Y-155702000D01*
X187198000Y-155702000D02*
X185166000Y-153670000D01*
D13*
X33020000Y-153670000D02*
X182880000Y-153670000D01*
D14*
X194056000Y-156972000D02*
X192151000Y-156972000D01*
X185166000Y-153670000D02*
X182880000Y-153670000D01*
G04 #@! TO.N,Net-(U1-PadB3)*
X190881000Y-153162000D02*
X187198000Y-153162000D01*
X194056000Y-154432000D02*
X192151000Y-154432000D01*
D13*
X33020000Y-151130000D02*
X182880000Y-151130000D01*
D14*
X192151000Y-154432000D02*
X190881000Y-153162000D01*
X187198000Y-153162000D02*
X185166000Y-151130000D01*
X185166000Y-151130000D02*
X182880000Y-151130000D01*
G04 #@! TO.N,Net-(U1-PadB4)*
X192151000Y-151892000D02*
X190881000Y-150622000D01*
X194056000Y-151892000D02*
X192151000Y-151892000D01*
X185166000Y-148590000D02*
X182880000Y-148590000D01*
X187198000Y-150622000D02*
X185166000Y-148590000D01*
X190881000Y-150622000D02*
X187198000Y-150622000D01*
D13*
X33020000Y-148590000D02*
X182880000Y-148590000D01*
D14*
G04 #@! TO.N,Net-(U1-PadB5)*
X185166000Y-146050000D02*
X182880000Y-146050000D01*
X190881000Y-148082000D02*
X187198000Y-148082000D01*
X194056000Y-149352000D02*
X192151000Y-149352000D01*
X187198000Y-148082000D02*
X185166000Y-146050000D01*
D13*
X33020000Y-146050000D02*
X182880000Y-146050000D01*
D14*
X192151000Y-149352000D02*
X190881000Y-148082000D01*
G04 #@! TO.N,Net-(U1-PadB6)*
X192151000Y-146812000D02*
X190881000Y-145542000D01*
X190881000Y-145542000D02*
X187198000Y-145542000D01*
D13*
X33020000Y-143510000D02*
X182880000Y-143510000D01*
D14*
X187198000Y-145542000D02*
X185166000Y-143510000D01*
X185166000Y-143510000D02*
X182880000Y-143510000D01*
X194056000Y-146812000D02*
X192151000Y-146812000D01*
G04 #@! TO.N,Net-(U1-PadB7)*
X192151000Y-144272000D02*
X190881000Y-143002000D01*
X187198000Y-143002000D02*
X185166000Y-140970000D01*
X194056000Y-144272000D02*
X192151000Y-144272000D01*
X185166000Y-140970000D02*
X182880000Y-140970000D01*
X190881000Y-143002000D02*
X187198000Y-143002000D01*
D13*
X33020000Y-140970000D02*
X182880000Y-140970000D01*
G04 #@! TO.N,Net-(U1-PadB8)*
X33020000Y-138430000D02*
X182880000Y-138430000D01*
D14*
X192151000Y-141732000D02*
X190881000Y-140462000D01*
X190881000Y-140462000D02*
X187198000Y-140462000D01*
X185166000Y-138430000D02*
X182880000Y-138430000D01*
X187198000Y-140462000D02*
X185166000Y-138430000D01*
X194056000Y-141732000D02*
X192151000Y-141732000D01*
G04 #@! TO.N,Net-(U1-PadB9)*
X194056000Y-139192000D02*
X192151000Y-139192000D01*
X187198000Y-137922000D02*
X185166000Y-135890000D01*
D13*
X33020000Y-135890000D02*
X182880000Y-135890000D01*
D14*
X190881000Y-137922000D02*
X187198000Y-137922000D01*
X192151000Y-139192000D02*
X190881000Y-137922000D01*
X185166000Y-135890000D02*
X182880000Y-135890000D01*
G04 #@! TO.N,Net-(U1-PadB10)*
X187198000Y-135382000D02*
X185166000Y-133350000D01*
X194056000Y-136652000D02*
X192151000Y-136652000D01*
D13*
X33020000Y-133350000D02*
X182880000Y-133350000D01*
D14*
X185166000Y-133350000D02*
X182880000Y-133350000D01*
X192151000Y-136652000D02*
X190881000Y-135382000D01*
X190881000Y-135382000D02*
X187198000Y-135382000D01*
G04 #@! TO.N,Net-(U1-PadB12)*
X192151000Y-131572000D02*
X190881000Y-130302000D01*
X187198000Y-130302000D02*
X185166000Y-128270000D01*
X194056000Y-131572000D02*
X192151000Y-131572000D01*
X190881000Y-130302000D02*
X187198000Y-130302000D01*
D13*
X33020000Y-128270000D02*
X182880000Y-128270000D01*
D14*
X185166000Y-128270000D02*
X182880000Y-128270000D01*
D13*
G04 #@! TO.N,Net-(U1-PadB13)*
X33020000Y-125730000D02*
X182880000Y-125730000D01*
D14*
X192151000Y-129032000D02*
X190881000Y-127762000D01*
X190881000Y-127762000D02*
X187198000Y-127762000D01*
X194056000Y-129032000D02*
X192151000Y-129032000D01*
X185166000Y-125730000D02*
X182880000Y-125730000D01*
X187198000Y-127762000D02*
X185166000Y-125730000D01*
G04 #@! TO.N,Net-(U1-PadB14)*
X190881000Y-125222000D02*
X187198000Y-125222000D01*
X187198000Y-125222000D02*
X185166000Y-123190000D01*
X185166000Y-123190000D02*
X182880000Y-123190000D01*
X192151000Y-126492000D02*
X190881000Y-125222000D01*
D13*
X33020000Y-123190000D02*
X182880000Y-123190000D01*
D14*
X194056000Y-126492000D02*
X192151000Y-126492000D01*
D13*
G04 #@! TO.N,Net-(U1-PadB15)*
X33020000Y-120650000D02*
X182880000Y-120650000D01*
D14*
X187198000Y-122682000D02*
X185166000Y-120650000D01*
X194056000Y-123952000D02*
X192151000Y-123952000D01*
X190881000Y-122682000D02*
X187198000Y-122682000D01*
X192151000Y-123952000D02*
X190881000Y-122682000D01*
X185166000Y-120650000D02*
X182880000Y-120650000D01*
G04 #@! TO.N,Net-(U1-PadB16)*
X187198000Y-120142000D02*
X185166000Y-118110000D01*
D13*
X33020000Y-118110000D02*
X182880000Y-118110000D01*
D14*
X192151000Y-121412000D02*
X190881000Y-120142000D01*
X185166000Y-118110000D02*
X182880000Y-118110000D01*
X190881000Y-120142000D02*
X187198000Y-120142000D01*
X194056000Y-121412000D02*
X192151000Y-121412000D01*
G04 #@! TO.N,Net-(U1-PadB17)*
X185166000Y-115570000D02*
X182880000Y-115570000D01*
X192151000Y-118872000D02*
X190881000Y-117602000D01*
X187198000Y-117602000D02*
X185166000Y-115570000D01*
X194056000Y-118872000D02*
X192151000Y-118872000D01*
X190881000Y-117602000D02*
X187198000Y-117602000D01*
D13*
X33020000Y-115570000D02*
X182880000Y-115570000D01*
D14*
G04 #@! TO.N,Net-(U1-PadB18)*
X190881000Y-115062000D02*
X187198000Y-115062000D01*
X185166000Y-113030000D02*
X182880000Y-113030000D01*
X187198000Y-115062000D02*
X185166000Y-113030000D01*
X192151000Y-116332000D02*
X190881000Y-115062000D01*
X194056000Y-116332000D02*
X192151000Y-116332000D01*
D13*
X33020000Y-113030000D02*
X182880000Y-113030000D01*
D14*
G04 #@! TO.N,Net-(U1-PadB19)*
X185166000Y-110490000D02*
X182880000Y-110490000D01*
X194056000Y-113792000D02*
X192151000Y-113792000D01*
X192151000Y-113792000D02*
X190881000Y-112522000D01*
D13*
X33020000Y-110490000D02*
X182880000Y-110490000D01*
D14*
X190881000Y-112522000D02*
X187198000Y-112522000D01*
X187198000Y-112522000D02*
X185166000Y-110490000D01*
G04 #@! TO.N,Net-(U1-PadB20)*
X190881000Y-109982000D02*
X187198000Y-109982000D01*
D13*
X33020000Y-107950000D02*
X182880000Y-107950000D01*
D14*
X194056000Y-111252000D02*
X192151000Y-111252000D01*
X185166000Y-107950000D02*
X182880000Y-107950000D01*
X192151000Y-111252000D02*
X190881000Y-109982000D01*
X187198000Y-109982000D02*
X185166000Y-107950000D01*
G04 #@! TO.N,Net-(U1-PadB22)*
X194056000Y-106172000D02*
X192151000Y-106172000D01*
X185166000Y-102870000D02*
X182880000Y-102870000D01*
D13*
X33020000Y-102870000D02*
X182880000Y-102870000D01*
D14*
X187198000Y-104902000D02*
X185166000Y-102870000D01*
X190881000Y-104902000D02*
X187198000Y-104902000D01*
X192151000Y-106172000D02*
X190881000Y-104902000D01*
D13*
G04 #@! TO.N,Net-(U1-PadB23)*
X33020000Y-100330000D02*
X182880000Y-100330000D01*
D14*
X190881000Y-102362000D02*
X187198000Y-102362000D01*
X194056000Y-103632000D02*
X192151000Y-103632000D01*
X192151000Y-103632000D02*
X190881000Y-102362000D01*
X187198000Y-102362000D02*
X185166000Y-100330000D01*
X185166000Y-100330000D02*
X182880000Y-100330000D01*
G04 #@! TO.N,Net-(U1-PadB24)*
X190881000Y-99822000D02*
X187198000Y-99822000D01*
X192151000Y-101092000D02*
X190881000Y-99822000D01*
D13*
X33020000Y-97790000D02*
X182880000Y-97790000D01*
D14*
X185166000Y-97790000D02*
X182880000Y-97790000D01*
X187198000Y-99822000D02*
X185166000Y-97790000D01*
X194056000Y-101092000D02*
X192151000Y-101092000D01*
G04 #@! TO.N,Net-(U1-PadB25)*
X194056000Y-98552000D02*
X192151000Y-98552000D01*
X185166000Y-95250000D02*
X182880000Y-95250000D01*
X190881000Y-97282000D02*
X187198000Y-97282000D01*
X192151000Y-98552000D02*
X190881000Y-97282000D01*
D13*
X33020000Y-95250000D02*
X182880000Y-95250000D01*
D14*
X187198000Y-97282000D02*
X185166000Y-95250000D01*
G04 #@! TO.N,Net-(U1-PadB26)*
X190881000Y-94742000D02*
X187198000Y-94742000D01*
X192151000Y-96012000D02*
X190881000Y-94742000D01*
X194056000Y-96012000D02*
X192151000Y-96012000D01*
X187198000Y-94742000D02*
X185166000Y-92710000D01*
X185166000Y-92710000D02*
X182880000Y-92710000D01*
D13*
X33020000Y-92710000D02*
X182880000Y-92710000D01*
G04 #@! TO.N,Net-(U1-PadB27)*
X33020000Y-90170000D02*
X182880000Y-90170000D01*
D14*
X192151000Y-93472000D02*
X190881000Y-92202000D01*
X185166000Y-90170000D02*
X182880000Y-90170000D01*
X194056000Y-93472000D02*
X192151000Y-93472000D01*
X187198000Y-92202000D02*
X185166000Y-90170000D01*
X190881000Y-92202000D02*
X187198000Y-92202000D01*
G04 #@! TO.N,Net-(U1-PadB28)*
X192151000Y-90932000D02*
X190881000Y-89662000D01*
D13*
X33020000Y-87630000D02*
X182880000Y-87630000D01*
D14*
X194056000Y-90932000D02*
X192151000Y-90932000D01*
X185166000Y-87630000D02*
X182880000Y-87630000D01*
X187198000Y-89662000D02*
X185166000Y-87630000D01*
X190881000Y-89662000D02*
X187198000Y-89662000D01*
D13*
G04 #@! TO.N,Net-(U1-PadB29)*
X33020000Y-85090000D02*
X182880000Y-85090000D01*
D14*
X185166000Y-85090000D02*
X182880000Y-85090000D01*
X187198000Y-87122000D02*
X185166000Y-85090000D01*
X192151000Y-88392000D02*
X190881000Y-87122000D01*
X190881000Y-87122000D02*
X187198000Y-87122000D01*
X194056000Y-88392000D02*
X192151000Y-88392000D01*
G04 #@! TO.N,Net-(U1-PadB30)*
X190881000Y-84582000D02*
X187198000Y-84582000D01*
X192151000Y-85852000D02*
X190881000Y-84582000D01*
X194056000Y-85852000D02*
X192151000Y-85852000D01*
X187198000Y-84582000D02*
X185166000Y-82550000D01*
D13*
X33020000Y-82550000D02*
X182880000Y-82550000D01*
D14*
X185166000Y-82550000D02*
X182880000Y-82550000D01*
G04 #@! TO.N,Net-(U1-PadB32)*
X190881000Y-79502000D02*
X187198000Y-79502000D01*
D13*
X33020000Y-77470000D02*
X182880000Y-77470000D01*
D14*
X187198000Y-79502000D02*
X185166000Y-77470000D01*
X185166000Y-77470000D02*
X182880000Y-77470000D01*
X194056000Y-80772000D02*
X192151000Y-80772000D01*
X192151000Y-80772000D02*
X190881000Y-79502000D01*
G04 #@! TO.N,Net-(U1-PadB33)*
X192151000Y-78232000D02*
X190881000Y-76962000D01*
X185166000Y-74930000D02*
X182880000Y-74930000D01*
X194056000Y-78232000D02*
X192151000Y-78232000D01*
D13*
X33020000Y-74930000D02*
X182880000Y-74930000D01*
D14*
X187198000Y-76962000D02*
X185166000Y-74930000D01*
X190881000Y-76962000D02*
X187198000Y-76962000D01*
G04 #@! TO.N,Net-(U1-PadB34)*
X190881000Y-74422000D02*
X187198000Y-74422000D01*
D13*
X33020000Y-72390000D02*
X182880000Y-72390000D01*
D14*
X192151000Y-75692000D02*
X190881000Y-74422000D01*
X194056000Y-75692000D02*
X192151000Y-75692000D01*
X185166000Y-72390000D02*
X182880000Y-72390000D01*
X187198000Y-74422000D02*
X185166000Y-72390000D01*
G04 #@! TO.N,Net-(U1-PadB35)*
X192151000Y-73152000D02*
X190881000Y-71882000D01*
X194056000Y-73152000D02*
X192151000Y-73152000D01*
D13*
X33020000Y-69850000D02*
X182880000Y-69850000D01*
D14*
X190881000Y-71882000D02*
X187198000Y-71882000D01*
X185166000Y-69850000D02*
X182880000Y-69850000D01*
X187198000Y-71882000D02*
X185166000Y-69850000D01*
G04 #@! TO.N,Net-(U1-PadB36)*
X190881000Y-69342000D02*
X187198000Y-69342000D01*
X192151000Y-70612000D02*
X190881000Y-69342000D01*
X187198000Y-69342000D02*
X185166000Y-67310000D01*
D13*
X33020000Y-67310000D02*
X182880000Y-67310000D01*
D14*
X185166000Y-67310000D02*
X182880000Y-67310000D01*
X194056000Y-70612000D02*
X192151000Y-70612000D01*
D13*
G04 #@! TO.N,Net-(U1-PadB37)*
X33020000Y-64770000D02*
X182880000Y-64770000D01*
D14*
X192151000Y-68072000D02*
X190881000Y-66802000D01*
X187198000Y-66802000D02*
X185166000Y-64770000D01*
X185166000Y-64770000D02*
X182880000Y-64770000D01*
X194056000Y-68072000D02*
X192151000Y-68072000D01*
X190881000Y-66802000D02*
X187198000Y-66802000D01*
G04 #@! TO.N,Net-(U1-PadB38)*
X187198000Y-64262000D02*
X185166000Y-62230000D01*
X192151000Y-65532000D02*
X190881000Y-64262000D01*
X190881000Y-64262000D02*
X187198000Y-64262000D01*
X194056000Y-65532000D02*
X192151000Y-65532000D01*
D13*
X33020000Y-62230000D02*
X182880000Y-62230000D01*
D14*
X185166000Y-62230000D02*
X182880000Y-62230000D01*
G04 #@! TO.N,Net-(U1-PadB40)*
X187198000Y-59182000D02*
X185166000Y-57150000D01*
X192151000Y-60452000D02*
X190881000Y-59182000D01*
X185166000Y-57150000D02*
X182880000Y-57150000D01*
X194056000Y-60452000D02*
X192151000Y-60452000D01*
X190881000Y-59182000D02*
X187198000Y-59182000D01*
D13*
X33020000Y-57150000D02*
X182880000Y-57150000D01*
D14*
G04 #@! TO.N,Net-(U1-PadB42)*
X194056000Y-55372000D02*
X192151000Y-55372000D01*
X190881000Y-54102000D02*
X187198000Y-54102000D01*
X185166000Y-52070000D02*
X182880000Y-52070000D01*
X187198000Y-54102000D02*
X185166000Y-52070000D01*
D13*
X33020000Y-52070000D02*
X182880000Y-52070000D01*
D14*
X192151000Y-55372000D02*
X190881000Y-54102000D01*
G04 #@! TO.N,Net-(U1-PadB43)*
X192151000Y-52832000D02*
X190881000Y-51562000D01*
X185166000Y-49530000D02*
X182880000Y-49530000D01*
X190881000Y-51562000D02*
X187198000Y-51562000D01*
D13*
X33020000Y-49530000D02*
X182880000Y-49530000D01*
D14*
X187198000Y-51562000D02*
X185166000Y-49530000D01*
X194056000Y-52832000D02*
X192151000Y-52832000D01*
D13*
G04 #@! TO.N,Net-(U1-PadB44)*
X33020000Y-46990000D02*
X182880000Y-46990000D01*
D14*
X187198000Y-49022000D02*
X185166000Y-46990000D01*
X190881000Y-49022000D02*
X187198000Y-49022000D01*
X185166000Y-46990000D02*
X182880000Y-46990000D01*
X192151000Y-50292000D02*
X190881000Y-49022000D01*
X194056000Y-50292000D02*
X192151000Y-50292000D01*
G04 #@! TO.N,Net-(U1-PadB45)*
X185166000Y-44450000D02*
X182880000Y-44450000D01*
X190881000Y-46482000D02*
X187198000Y-46482000D01*
X187198000Y-46482000D02*
X185166000Y-44450000D01*
X194056000Y-47752000D02*
X192151000Y-47752000D01*
D13*
X33020000Y-44450000D02*
X182880000Y-44450000D01*
D14*
X192151000Y-47752000D02*
X190881000Y-46482000D01*
G04 #@! TO.N,Net-(U1-PadB46)*
X192151000Y-45212000D02*
X190881000Y-43942000D01*
X185166000Y-41910000D02*
X182880000Y-41910000D01*
X187198000Y-43942000D02*
X185166000Y-41910000D01*
D13*
X33020000Y-41910000D02*
X182880000Y-41910000D01*
D14*
X194056000Y-45212000D02*
X192151000Y-45212000D01*
X190881000Y-43942000D02*
X187198000Y-43942000D01*
G04 #@! TO.N,Net-(U1-PadB47)*
X190881000Y-41402000D02*
X187198000Y-41402000D01*
X194056000Y-42672000D02*
X192151000Y-42672000D01*
X187198000Y-41402000D02*
X185166000Y-39370000D01*
X192151000Y-42672000D02*
X190881000Y-41402000D01*
D13*
X33020000Y-39370000D02*
X182880000Y-39370000D01*
D14*
X185166000Y-39370000D02*
X182880000Y-39370000D01*
G04 #@! TO.N,Net-(U1-PadB48)*
X190881000Y-38862000D02*
X187198000Y-38862000D01*
X192151000Y-40132000D02*
X190881000Y-38862000D01*
X187198000Y-38862000D02*
X185166000Y-36830000D01*
X185166000Y-36830000D02*
X182880000Y-36830000D01*
D13*
X33020000Y-36830000D02*
X182880000Y-36830000D01*
D14*
X194056000Y-40132000D02*
X192151000Y-40132000D01*
G04 #@! TO.N,Net-(U1-PadB39)*
X185166000Y-59690000D02*
X182880000Y-59690000D01*
D13*
X33020000Y-59690000D02*
X182880000Y-59690000D01*
D14*
X190881000Y-61722000D02*
X187198000Y-61722000D01*
X194056000Y-62992000D02*
X192151000Y-62992000D01*
X187198000Y-61722000D02*
X185166000Y-59690000D01*
X192151000Y-62992000D02*
X190881000Y-61722000D01*
G04 #@! TD*
M02*
