G04 #@! TF.GenerationSoftware,KiCad,Pcbnew,(6.0.5-0)*
G04 #@! TF.CreationDate,2022-09-11T11:11:37+09:00*
G04 #@! TF.ProjectId,X68k-BusExtender,5836386b-2d42-4757-9345-7874656e6465,rev?*
G04 #@! TF.SameCoordinates,Original*
G04 #@! TF.FileFunction,Copper,L1,Top*
G04 #@! TF.FilePolarity,Positive*
%FSLAX46Y46*%
G04 Gerber Fmt 4.6, Leading zero omitted, Abs format (unit mm)*
G04 Created by KiCad (PCBNEW (6.0.5-0)) date 2022-09-11 11:11:37*
%MOMM*%
%LPD*%
G01*
G04 APERTURE LIST*
G04 Aperture macros list*
%AMRoundRect*
0 Rectangle with rounded corners*
0 $1 Rounding radius*
0 $2 $3 $4 $5 $6 $7 $8 $9 X,Y pos of 4 corners*
0 Add a 4 corners polygon primitive as box body*
4,1,4,$2,$3,$4,$5,$6,$7,$8,$9,$2,$3,0*
0 Add four circle primitives for the rounded corners*
1,1,$1+$1,$2,$3*
1,1,$1+$1,$4,$5*
1,1,$1+$1,$6,$7*
1,1,$1+$1,$8,$9*
0 Add four rect primitives between the rounded corners*
20,1,$1+$1,$2,$3,$4,$5,0*
20,1,$1+$1,$4,$5,$6,$7,0*
20,1,$1+$1,$6,$7,$8,$9,0*
20,1,$1+$1,$8,$9,$2,$3,0*%
G04 Aperture macros list end*
G04 #@! TA.AperFunction,ConnectorPad*
%ADD10RoundRect,0.300000X-4.200000X-0.450000X4.200000X-0.450000X4.200000X0.450000X-4.200000X0.450000X0*%
G04 #@! TD*
G04 #@! TA.AperFunction,ComponentPad*
%ADD11C,1.600000*%
G04 #@! TD*
G04 #@! TA.AperFunction,ViaPad*
%ADD12C,0.800000*%
G04 #@! TD*
G04 #@! TA.AperFunction,Conductor*
%ADD13C,1.500000*%
G04 #@! TD*
G04 APERTURE END LIST*
D10*
G04 #@! TO.P,U1,A1,GND*
G04 #@! TO.N,Net-(U1-PadA1)*
X33020000Y-156210000D03*
G04 #@! TO.P,U1,A2,CLK20M*
G04 #@! TO.N,Net-(U1-PadA2)*
X33020000Y-153670000D03*
G04 #@! TO.P,U1,A3,GND*
G04 #@! TO.N,Net-(U1-PadA1)*
X33020000Y-151130000D03*
G04 #@! TO.P,U1,A4,DB0*
G04 #@! TO.N,Net-(U1-PadA4)*
X33020000Y-148590000D03*
G04 #@! TO.P,U1,A5,DB1*
G04 #@! TO.N,Net-(U1-PadA5)*
X33020000Y-146050000D03*
G04 #@! TO.P,U1,A6,DB2*
G04 #@! TO.N,Net-(U1-PadA6)*
X33020000Y-143510000D03*
G04 #@! TO.P,U1,A7,DB3*
G04 #@! TO.N,Net-(U1-PadA7)*
X33020000Y-140970000D03*
G04 #@! TO.P,U1,A8,DB4*
G04 #@! TO.N,Net-(U1-PadA8)*
X33020000Y-138430000D03*
G04 #@! TO.P,U1,A9,DB5*
G04 #@! TO.N,Net-(U1-PadA9)*
X33020000Y-135890000D03*
G04 #@! TO.P,U1,A10,DB6*
G04 #@! TO.N,Net-(U1-PadA10)*
X33020000Y-133350000D03*
G04 #@! TO.P,U1,A11,GND*
G04 #@! TO.N,Net-(U1-PadA1)*
X33020000Y-130810000D03*
G04 #@! TO.P,U1,A12,DB7*
G04 #@! TO.N,Net-(U1-PadA12)*
X33020000Y-128270000D03*
G04 #@! TO.P,U1,A13,DB8*
G04 #@! TO.N,Net-(U1-PadA13)*
X33020000Y-125730000D03*
G04 #@! TO.P,U1,A14,DB9*
G04 #@! TO.N,Net-(U1-PadA14)*
X33020000Y-123190000D03*
G04 #@! TO.P,U1,A15,DB10*
G04 #@! TO.N,Net-(U1-PadA15)*
X33020000Y-120650000D03*
G04 #@! TO.P,U1,A16,DB11*
G04 #@! TO.N,Net-(U1-PadA16)*
X33020000Y-118110000D03*
G04 #@! TO.P,U1,A17,DB12*
G04 #@! TO.N,Net-(U1-PadA17)*
X33020000Y-115570000D03*
G04 #@! TO.P,U1,A18,DB13*
G04 #@! TO.N,Net-(U1-PadA18)*
X33020000Y-113030000D03*
G04 #@! TO.P,U1,A19,DB14*
G04 #@! TO.N,Net-(U1-PadA19)*
X33020000Y-110490000D03*
G04 #@! TO.P,U1,A20,DB15*
G04 #@! TO.N,Net-(U1-PadA20)*
X33020000Y-107950000D03*
G04 #@! TO.P,U1,A21,GND*
G04 #@! TO.N,Net-(U1-PadA1)*
X33020000Y-105410000D03*
G04 #@! TO.P,U1,A22,+12V*
G04 #@! TO.N,Net-(U1-PadA22)*
X33020000Y-102870000D03*
G04 #@! TO.P,U1,A23,+12V*
X33020000Y-100330000D03*
G04 #@! TO.P,U1,A24,FC0*
G04 #@! TO.N,Net-(U1-PadA24)*
X33020000Y-97790000D03*
G04 #@! TO.P,U1,A25,FC1*
G04 #@! TO.N,Net-(U1-PadA25)*
X33020000Y-95250000D03*
G04 #@! TO.P,U1,A26,FC2*
G04 #@! TO.N,Net-(U1-PadA26)*
X33020000Y-92710000D03*
G04 #@! TO.P,U1,A27,~{AS}*
G04 #@! TO.N,Net-(U1-PadA27)*
X33020000Y-90170000D03*
G04 #@! TO.P,U1,A28,~{LDS}*
G04 #@! TO.N,Net-(U1-PadA28)*
X33020000Y-87630000D03*
G04 #@! TO.P,U1,A29,~{UDS}*
G04 #@! TO.N,Net-(U1-PadA29)*
X33020000Y-85090000D03*
G04 #@! TO.P,U1,A30,R/~{W}*
G04 #@! TO.N,Net-(U1-PadA30)*
X33020000Y-82550000D03*
G04 #@! TO.P,U1,A31,RESVA*
G04 #@! TO.N,unconnected-(U1-PadA31)*
X33020000Y-80010000D03*
G04 #@! TO.P,U1,A32,-12V*
G04 #@! TO.N,Net-(U1-PadA32)*
X33020000Y-77470000D03*
G04 #@! TO.P,U1,A33,-12V*
X33020000Y-74930000D03*
G04 #@! TO.P,U1,A34,~{VMA}*
G04 #@! TO.N,Net-(U1-PadA34)*
X33020000Y-72390000D03*
G04 #@! TO.P,U1,A35,~{EXVPA}*
G04 #@! TO.N,Net-(U1-PadA35)*
X33020000Y-69850000D03*
G04 #@! TO.P,U1,A36,~{DTACK}*
G04 #@! TO.N,Net-(U1-PadA36)*
X33020000Y-67310000D03*
G04 #@! TO.P,U1,A37,~{EXRESET}*
G04 #@! TO.N,Net-(U1-PadA37)*
X33020000Y-64770000D03*
G04 #@! TO.P,U1,A38,~{HALT}*
G04 #@! TO.N,Net-(U1-PadA38)*
X33020000Y-62230000D03*
G04 #@! TO.P,U1,A39,~{EXBERR}*
G04 #@! TO.N,Net-(U1-PadA39)*
X33020000Y-59690000D03*
G04 #@! TO.P,U1,A40,~{EXPWON}*
G04 #@! TO.N,Net-(U1-PadA40)*
X33020000Y-57150000D03*
G04 #@! TO.P,U1,A41,GND*
G04 #@! TO.N,Net-(U1-PadA1)*
X33020000Y-54610000D03*
G04 #@! TO.P,U1,A42,VCC2*
G04 #@! TO.N,Net-(U1-PadA42)*
X33020000Y-52070000D03*
G04 #@! TO.P,U1,A43,VCC2*
X33020000Y-49530000D03*
G04 #@! TO.P,U1,A44,SELEN*
G04 #@! TO.N,Net-(U1-PadA44)*
X33020000Y-46990000D03*
G04 #@! TO.P,U1,A45,CASRDEN*
G04 #@! TO.N,Net-(U1-PadA45)*
X33020000Y-44450000D03*
G04 #@! TO.P,U1,A46,CASWRL*
G04 #@! TO.N,Net-(U1-PadA46)*
X33020000Y-41910000D03*
G04 #@! TO.P,U1,A47,CASWRU*
G04 #@! TO.N,Net-(U1-PadA47)*
X33020000Y-39370000D03*
G04 #@! TO.P,U1,A48,INH2*
G04 #@! TO.N,Net-(U1-PadA48)*
X33020000Y-36830000D03*
G04 #@! TO.P,U1,A49,VCC1*
G04 #@! TO.N,Net-(U1-PadA49)*
X33020000Y-34290000D03*
G04 #@! TO.P,U1,A50,VCC1*
X33020000Y-31750000D03*
G04 #@! TD*
D11*
G04 #@! TO.P,U2,A1,GND*
G04 #@! TO.N,Net-(U1-PadA1)*
X188976000Y-159512000D03*
G04 #@! TO.P,U2,A2,CLK20M*
G04 #@! TO.N,Net-(U1-PadA2)*
X188976000Y-156972000D03*
G04 #@! TO.P,U2,A3,GND*
G04 #@! TO.N,Net-(U1-PadA1)*
X188976000Y-154432000D03*
G04 #@! TO.P,U2,A4,DB0*
G04 #@! TO.N,Net-(U1-PadA4)*
X188976000Y-151892000D03*
G04 #@! TO.P,U2,A5,DB1*
G04 #@! TO.N,Net-(U1-PadA5)*
X188976000Y-149352000D03*
G04 #@! TO.P,U2,A6,DB2*
G04 #@! TO.N,Net-(U1-PadA6)*
X188976000Y-146812000D03*
G04 #@! TO.P,U2,A7,DB3*
G04 #@! TO.N,Net-(U1-PadA7)*
X188976000Y-144272000D03*
G04 #@! TO.P,U2,A8,DB4*
G04 #@! TO.N,Net-(U1-PadA8)*
X188976000Y-141732000D03*
G04 #@! TO.P,U2,A9,DB5*
G04 #@! TO.N,Net-(U1-PadA9)*
X188976000Y-139192000D03*
G04 #@! TO.P,U2,A10,DB6*
G04 #@! TO.N,Net-(U1-PadA10)*
X188976000Y-136652000D03*
G04 #@! TO.P,U2,A11,GND*
G04 #@! TO.N,Net-(U1-PadA1)*
X188976000Y-134112000D03*
G04 #@! TO.P,U2,A12,DB7*
G04 #@! TO.N,Net-(U1-PadA12)*
X188976000Y-131572000D03*
G04 #@! TO.P,U2,A13,DB8*
G04 #@! TO.N,Net-(U1-PadA13)*
X188976000Y-129032000D03*
G04 #@! TO.P,U2,A14,DB9*
G04 #@! TO.N,Net-(U1-PadA14)*
X188976000Y-126492000D03*
G04 #@! TO.P,U2,A15,DB10*
G04 #@! TO.N,Net-(U1-PadA15)*
X188976000Y-123952000D03*
G04 #@! TO.P,U2,A16,DB11*
G04 #@! TO.N,Net-(U1-PadA16)*
X188976000Y-121412000D03*
G04 #@! TO.P,U2,A17,DB12*
G04 #@! TO.N,Net-(U1-PadA17)*
X188976000Y-118872000D03*
G04 #@! TO.P,U2,A18,DB13*
G04 #@! TO.N,Net-(U1-PadA18)*
X188976000Y-116332000D03*
G04 #@! TO.P,U2,A19,DB14*
G04 #@! TO.N,Net-(U1-PadA19)*
X188976000Y-113792000D03*
G04 #@! TO.P,U2,A20,DB15*
G04 #@! TO.N,Net-(U1-PadA20)*
X188976000Y-111252000D03*
G04 #@! TO.P,U2,A21,GND*
G04 #@! TO.N,Net-(U1-PadA1)*
X188976000Y-108712000D03*
G04 #@! TO.P,U2,A22,+12V*
G04 #@! TO.N,Net-(U1-PadA22)*
X188976000Y-106172000D03*
G04 #@! TO.P,U2,A23,+12V*
X188976000Y-103632000D03*
G04 #@! TO.P,U2,A24,FC0*
G04 #@! TO.N,Net-(U1-PadA24)*
X188976000Y-101092000D03*
G04 #@! TO.P,U2,A25,FC1*
G04 #@! TO.N,Net-(U1-PadA25)*
X188976000Y-98552000D03*
G04 #@! TO.P,U2,A26,FC2*
G04 #@! TO.N,Net-(U1-PadA26)*
X188976000Y-96012000D03*
G04 #@! TO.P,U2,A27,~{AS}*
G04 #@! TO.N,Net-(U1-PadA27)*
X188976000Y-93472000D03*
G04 #@! TO.P,U2,A28,~{LDS}*
G04 #@! TO.N,Net-(U1-PadA28)*
X188976000Y-90932000D03*
G04 #@! TO.P,U2,A29,~{UDS}*
G04 #@! TO.N,Net-(U1-PadA29)*
X188976000Y-88392000D03*
G04 #@! TO.P,U2,A30,R/~{W}*
G04 #@! TO.N,Net-(U1-PadA30)*
X188976000Y-85852000D03*
G04 #@! TO.P,U2,A31,RESVA*
G04 #@! TO.N,unconnected-(U2-PadA31)*
X188976000Y-83312000D03*
G04 #@! TO.P,U2,A32,-12V*
G04 #@! TO.N,Net-(U1-PadA32)*
X188976000Y-80772000D03*
G04 #@! TO.P,U2,A33,-12V*
X188976000Y-78232000D03*
G04 #@! TO.P,U2,A34,~{VMA}*
G04 #@! TO.N,Net-(U1-PadA34)*
X188976000Y-75692000D03*
G04 #@! TO.P,U2,A35,~{EXVPA}*
G04 #@! TO.N,Net-(U1-PadA35)*
X188976000Y-73152000D03*
G04 #@! TO.P,U2,A36,~{DTACK}*
G04 #@! TO.N,Net-(U1-PadA36)*
X188976000Y-70612000D03*
G04 #@! TO.P,U2,A37,~{EXRESET}*
G04 #@! TO.N,Net-(U1-PadA37)*
X188976000Y-68072000D03*
G04 #@! TO.P,U2,A38,~{HALT}*
G04 #@! TO.N,Net-(U1-PadA38)*
X188976000Y-65532000D03*
G04 #@! TO.P,U2,A39,~{EXBERR}*
G04 #@! TO.N,Net-(U1-PadA39)*
X188976000Y-62992000D03*
G04 #@! TO.P,U2,A40,~{EXPWON}*
G04 #@! TO.N,Net-(U1-PadA40)*
X188976000Y-60452000D03*
G04 #@! TO.P,U2,A41,GND*
G04 #@! TO.N,Net-(U1-PadA1)*
X188976000Y-57912000D03*
G04 #@! TO.P,U2,A42,VCC2*
G04 #@! TO.N,Net-(U1-PadA42)*
X188976000Y-55372000D03*
G04 #@! TO.P,U2,A43,VCC2*
X188976000Y-52832000D03*
G04 #@! TO.P,U2,A44,SELEN*
G04 #@! TO.N,Net-(U1-PadA44)*
X188976000Y-50292000D03*
G04 #@! TO.P,U2,A45,CASRDEN*
G04 #@! TO.N,Net-(U1-PadA45)*
X188976000Y-47752000D03*
G04 #@! TO.P,U2,A46,CASWRL*
G04 #@! TO.N,Net-(U1-PadA46)*
X188976000Y-45212000D03*
G04 #@! TO.P,U2,A47,CASWRU*
G04 #@! TO.N,Net-(U1-PadA47)*
X188976000Y-42672000D03*
G04 #@! TO.P,U2,A48,INH2*
G04 #@! TO.N,Net-(U1-PadA48)*
X188976000Y-40132000D03*
G04 #@! TO.P,U2,A49,VCC1*
G04 #@! TO.N,Net-(U1-PadA49)*
X188976000Y-37592000D03*
G04 #@! TO.P,U2,A50,VCC1*
X188976000Y-35052000D03*
G04 #@! TO.P,U2,B1,GND*
G04 #@! TO.N,Net-(U1-PadA1)*
X194056000Y-159512000D03*
G04 #@! TO.P,U2,B2,CLK10M*
G04 #@! TO.N,Net-(U1-PadB2)*
X194056000Y-156972000D03*
G04 #@! TO.P,U2,B3,~{CLK10M}*
G04 #@! TO.N,Net-(U1-PadB3)*
X194056000Y-154432000D03*
G04 #@! TO.P,U2,B4,E*
G04 #@! TO.N,Net-(U1-PadB4)*
X194056000Y-151892000D03*
G04 #@! TO.P,U2,B5,AB1*
G04 #@! TO.N,Net-(U1-PadB5)*
X194056000Y-149352000D03*
G04 #@! TO.P,U2,B6,AB2*
G04 #@! TO.N,Net-(U1-PadB6)*
X194056000Y-146812000D03*
G04 #@! TO.P,U2,B7,AB3*
G04 #@! TO.N,Net-(U1-PadB7)*
X194056000Y-144272000D03*
G04 #@! TO.P,U2,B8,AB4*
G04 #@! TO.N,Net-(U1-PadB8)*
X194056000Y-141732000D03*
G04 #@! TO.P,U2,B9,AB5*
G04 #@! TO.N,Net-(U1-PadB9)*
X194056000Y-139192000D03*
G04 #@! TO.P,U2,B10,AB6*
G04 #@! TO.N,Net-(U1-PadB10)*
X194056000Y-136652000D03*
G04 #@! TO.P,U2,B11,GND*
G04 #@! TO.N,Net-(U1-PadA1)*
X194056000Y-134112000D03*
G04 #@! TO.P,U2,B12,AB7*
G04 #@! TO.N,Net-(U1-PadB12)*
X194056000Y-131572000D03*
G04 #@! TO.P,U2,B13,AB8*
G04 #@! TO.N,Net-(U1-PadB13)*
X194056000Y-129032000D03*
G04 #@! TO.P,U2,B14,AB9*
G04 #@! TO.N,Net-(U1-PadB14)*
X194056000Y-126492000D03*
G04 #@! TO.P,U2,B15,AB10*
G04 #@! TO.N,Net-(U1-PadB15)*
X194056000Y-123952000D03*
G04 #@! TO.P,U2,B16,AB11*
G04 #@! TO.N,Net-(U1-PadB16)*
X194056000Y-121412000D03*
G04 #@! TO.P,U2,B17,AB12*
G04 #@! TO.N,Net-(U1-PadB17)*
X194056000Y-118872000D03*
G04 #@! TO.P,U2,B18,AB13*
G04 #@! TO.N,Net-(U1-PadB18)*
X194056000Y-116332000D03*
G04 #@! TO.P,U2,B19,AB14*
G04 #@! TO.N,Net-(U1-PadB19)*
X194056000Y-113792000D03*
G04 #@! TO.P,U2,B20,AB15*
G04 #@! TO.N,Net-(U1-PadB20)*
X194056000Y-111252000D03*
G04 #@! TO.P,U2,B21,GND*
G04 #@! TO.N,Net-(U1-PadA1)*
X194056000Y-108712000D03*
G04 #@! TO.P,U2,B22,AB16*
G04 #@! TO.N,Net-(U1-PadB22)*
X194056000Y-106172000D03*
G04 #@! TO.P,U2,B23,AB17*
G04 #@! TO.N,Net-(U1-PadB23)*
X194056000Y-103632000D03*
G04 #@! TO.P,U2,B24,AB18*
G04 #@! TO.N,Net-(U1-PadB24)*
X194056000Y-101092000D03*
G04 #@! TO.P,U2,B25,AB19*
G04 #@! TO.N,Net-(U1-PadB25)*
X194056000Y-98552000D03*
G04 #@! TO.P,U2,B26,AB20*
G04 #@! TO.N,Net-(U1-PadB26)*
X194056000Y-96012000D03*
G04 #@! TO.P,U2,B27,AB21*
G04 #@! TO.N,Net-(U1-PadB27)*
X194056000Y-93472000D03*
G04 #@! TO.P,U2,B28,AB22*
G04 #@! TO.N,Net-(U1-PadB28)*
X194056000Y-90932000D03*
G04 #@! TO.P,U2,B29,AB23*
G04 #@! TO.N,Net-(U1-PadB29)*
X194056000Y-88392000D03*
G04 #@! TO.P,U2,B30,IDDIR*
G04 #@! TO.N,Net-(U1-PadB30)*
X194056000Y-85852000D03*
G04 #@! TO.P,U2,B31,RESVB*
G04 #@! TO.N,unconnected-(U2-PadB31)*
X194056000Y-83312000D03*
G04 #@! TO.P,U2,B32,HSYNC*
G04 #@! TO.N,Net-(U1-PadB32)*
X194056000Y-80772000D03*
G04 #@! TO.P,U2,B33,VSYNC*
G04 #@! TO.N,Net-(U1-PadB33)*
X194056000Y-78232000D03*
G04 #@! TO.P,U2,B34,~{DONE}*
G04 #@! TO.N,Net-(U1-PadB34)*
X194056000Y-75692000D03*
G04 #@! TO.P,U2,B35,~{DTC}*
G04 #@! TO.N,Net-(U1-PadB35)*
X194056000Y-73152000D03*
G04 #@! TO.P,U2,B36,~{EXREQ}*
G04 #@! TO.N,Net-(U1-PadB36)*
X194056000Y-70612000D03*
G04 #@! TO.P,U2,B37,~{EXACK}*
G04 #@! TO.N,Net-(U1-PadB37)*
X194056000Y-68072000D03*
G04 #@! TO.P,U2,B38,~{EXPCL}*
G04 #@! TO.N,Net-(U1-PadB38)*
X194056000Y-65532000D03*
G04 #@! TO.P,U2,B39,~{EXOWN}*
G04 #@! TO.N,Net-(U1-PadB39)*
X194056000Y-62992000D03*
G04 #@! TO.P,U2,B40,~{EXNMI}*
G04 #@! TO.N,Net-(U1-PadB40)*
X194056000Y-60452000D03*
G04 #@! TO.P,U2,B41,GND*
G04 #@! TO.N,Net-(U1-PadA1)*
X194056000Y-57912000D03*
G04 #@! TO.P,U2,B42,~{IRQ2}*
G04 #@! TO.N,Net-(U1-PadB42)*
X194056000Y-55372000D03*
G04 #@! TO.P,U2,B43,~{IRQ4}*
G04 #@! TO.N,Net-(U1-PadB43)*
X194056000Y-52832000D03*
G04 #@! TO.P,U2,B44,~{IACK2}*
G04 #@! TO.N,Net-(U1-PadB44)*
X194056000Y-50292000D03*
G04 #@! TO.P,U2,B45,~{IACK4}*
G04 #@! TO.N,Net-(U1-PadB45)*
X194056000Y-47752000D03*
G04 #@! TO.P,U2,B46,~{BR}*
G04 #@! TO.N,Net-(U1-PadB46)*
X194056000Y-45212000D03*
G04 #@! TO.P,U2,B47,~{BG}*
G04 #@! TO.N,Net-(U1-PadB47)*
X194056000Y-42672000D03*
G04 #@! TO.P,U2,B48,~{BGACK}*
G04 #@! TO.N,Net-(U1-PadB48)*
X194056000Y-40132000D03*
G04 #@! TO.P,U2,B49,VCC1*
G04 #@! TO.N,Net-(U1-PadA49)*
X194056000Y-37592000D03*
G04 #@! TO.P,U2,B50,VCC1*
X194056000Y-35052000D03*
G04 #@! TD*
D12*
G04 #@! TO.N,Net-(U1-PadA1)*
X50800000Y-130810000D03*
X50800000Y-105410000D03*
X50800000Y-156210000D03*
X50800000Y-54610000D03*
G04 #@! TO.N,Net-(U1-PadA49)*
X50800000Y-31750000D03*
X50800000Y-34290000D03*
G04 #@! TD*
D13*
G04 #@! TO.N,Net-(U1-PadA1)*
X191135000Y-58420000D02*
X191135000Y-107950000D01*
X33020000Y-105410000D02*
X164025892Y-105410000D01*
X153455838Y-153376162D02*
X154511676Y-154432000D01*
X190627000Y-57912000D02*
X191135000Y-58420000D01*
X164025892Y-105410000D02*
X167327892Y-108712000D01*
X188976000Y-57912000D02*
X190627000Y-57912000D01*
X190373000Y-108712000D02*
X188976000Y-108712000D01*
X191008000Y-154432000D02*
X188976000Y-154432000D01*
X33020000Y-130810000D02*
X156905772Y-130810000D01*
X190373000Y-134112000D02*
X191135000Y-133350000D01*
X33020000Y-151130000D02*
X151209676Y-151130000D01*
X191135000Y-107950000D02*
X191135000Y-133350000D01*
X188976000Y-134112000D02*
X190373000Y-134112000D01*
X156905772Y-130810000D02*
X160207772Y-134112000D01*
X33020000Y-156210000D02*
X149785652Y-156210000D01*
X154511676Y-154432000D02*
X188976000Y-154432000D01*
X176413065Y-54610000D02*
X179715065Y-57912000D01*
X160207772Y-134112000D02*
X188976000Y-134112000D01*
X191135000Y-107950000D02*
X190373000Y-108712000D01*
X151209676Y-151130000D02*
X153455838Y-153376162D01*
X179715065Y-57912000D02*
X188976000Y-57912000D01*
X191135000Y-133350000D02*
X191135000Y-154305000D01*
X191008000Y-159512000D02*
X188976000Y-159512000D01*
X167327892Y-108712000D02*
X188976000Y-108712000D01*
X191135000Y-154305000D02*
X191008000Y-154432000D01*
X191135000Y-159385000D02*
X191135000Y-154305000D01*
X191135000Y-159385000D02*
X191008000Y-159512000D01*
X149785652Y-156210000D02*
X153087652Y-159512000D01*
X33020000Y-54610000D02*
X176413065Y-54610000D01*
X153087652Y-159512000D02*
X188976000Y-159512000D01*
G04 #@! TO.N,Net-(U1-PadA2)*
X33020000Y-153670000D02*
X150497664Y-153670000D01*
X150497664Y-153670000D02*
X153799664Y-156972000D01*
X153799664Y-156972000D02*
X188976000Y-156972000D01*
G04 #@! TO.N,Net-(U1-PadA4)*
X155223688Y-151892000D02*
X188976000Y-151892000D01*
X33020000Y-148590000D02*
X151921688Y-148590000D01*
X151921688Y-148590000D02*
X155223688Y-151892000D01*
G04 #@! TO.N,Net-(U1-PadA5)*
X152633700Y-146050000D02*
X155935700Y-149352000D01*
X155935700Y-149352000D02*
X188976000Y-149352000D01*
X33020000Y-146050000D02*
X152633700Y-146050000D01*
G04 #@! TO.N,Net-(U1-PadA6)*
X156647712Y-146812000D02*
X188976000Y-146812000D01*
X33020000Y-143510000D02*
X153345712Y-143510000D01*
X153345712Y-143510000D02*
X156647712Y-146812000D01*
G04 #@! TO.N,Net-(U1-PadA7)*
X33020000Y-140970000D02*
X154057724Y-140970000D01*
X157359724Y-144272000D02*
X188976000Y-144272000D01*
X154057724Y-140970000D02*
X157359724Y-144272000D01*
G04 #@! TO.N,Net-(U1-PadA8)*
X33020000Y-138430000D02*
X154769736Y-138430000D01*
X158071736Y-141732000D02*
X188976000Y-141732000D01*
X154769736Y-138430000D02*
X158071736Y-141732000D01*
G04 #@! TO.N,Net-(U1-PadA9)*
X158783748Y-139192000D02*
X188976000Y-139192000D01*
X33020000Y-135890000D02*
X155481748Y-135890000D01*
X155481748Y-135890000D02*
X158783748Y-139192000D01*
G04 #@! TO.N,Net-(U1-PadA10)*
X156193760Y-133350000D02*
X159495760Y-136652000D01*
X159495760Y-136652000D02*
X188976000Y-136652000D01*
X33020000Y-133350000D02*
X156193760Y-133350000D01*
G04 #@! TO.N,Net-(U1-PadA12)*
X157617784Y-128270000D02*
X160919784Y-131572000D01*
X160919784Y-131572000D02*
X188976000Y-131572000D01*
X33020000Y-128270000D02*
X157617784Y-128270000D01*
G04 #@! TO.N,Net-(U1-PadA13)*
X33020000Y-125730000D02*
X158329796Y-125730000D01*
X161631796Y-129032000D02*
X188976000Y-129032000D01*
X158329796Y-125730000D02*
X161631796Y-129032000D01*
G04 #@! TO.N,Net-(U1-PadA14)*
X162343808Y-126492000D02*
X188976000Y-126492000D01*
X33020000Y-123190000D02*
X159041808Y-123190000D01*
X159041808Y-123190000D02*
X162343808Y-126492000D01*
G04 #@! TO.N,Net-(U1-PadA15)*
X33020000Y-120650000D02*
X159753820Y-120650000D01*
X159753820Y-120650000D02*
X163055820Y-123952000D01*
X163055820Y-123952000D02*
X188976000Y-123952000D01*
G04 #@! TO.N,Net-(U1-PadA16)*
X33020000Y-118110000D02*
X160465832Y-118110000D01*
X160465832Y-118110000D02*
X163767832Y-121412000D01*
X163767832Y-121412000D02*
X188976000Y-121412000D01*
G04 #@! TO.N,Net-(U1-PadA17)*
X164479844Y-118872000D02*
X188976000Y-118872000D01*
X33020000Y-115570000D02*
X161177844Y-115570000D01*
X161177844Y-115570000D02*
X164479844Y-118872000D01*
G04 #@! TO.N,Net-(U1-PadA18)*
X161889856Y-113030000D02*
X165191856Y-116332000D01*
X165191856Y-116332000D02*
X188976000Y-116332000D01*
X33020000Y-113030000D02*
X161889856Y-113030000D01*
G04 #@! TO.N,Net-(U1-PadA19)*
X33020000Y-110490000D02*
X162601868Y-110490000D01*
X165903868Y-113792000D02*
X188976000Y-113792000D01*
X162601868Y-110490000D02*
X165903868Y-113792000D01*
G04 #@! TO.N,Net-(U1-PadA20)*
X33020000Y-107950000D02*
X163313880Y-107950000D01*
X163313880Y-107950000D02*
X166615880Y-111252000D01*
X166615880Y-111252000D02*
X188976000Y-111252000D01*
G04 #@! TO.N,Net-(U1-PadA22)*
X33020000Y-100330000D02*
X45720000Y-100330000D01*
X45720000Y-102870000D02*
X164737904Y-102870000D01*
X165449916Y-100330000D02*
X168751916Y-103632000D01*
X164737904Y-102870000D02*
X168039904Y-106172000D01*
X50800000Y-102870000D02*
X50800000Y-100330000D01*
X168039904Y-106172000D02*
X188976000Y-106172000D01*
X44958000Y-100330000D02*
X165449916Y-100330000D01*
X168751916Y-103632000D02*
X188976000Y-103632000D01*
X33020000Y-102870000D02*
X45212000Y-102870000D01*
G04 #@! TO.N,Net-(U1-PadA24)*
X166161928Y-97790000D02*
X169463928Y-101092000D01*
X33020000Y-97790000D02*
X166161928Y-97790000D01*
X169463928Y-101092000D02*
X188976000Y-101092000D01*
G04 #@! TO.N,Net-(U1-PadA25)*
X166873940Y-95250000D02*
X170175940Y-98552000D01*
X33020000Y-95250000D02*
X166873940Y-95250000D01*
X170175940Y-98552000D02*
X188976000Y-98552000D01*
G04 #@! TO.N,Net-(U1-PadA26)*
X33020000Y-92710000D02*
X167585952Y-92710000D01*
X167585952Y-92710000D02*
X170887952Y-96012000D01*
X170887952Y-96012000D02*
X188976000Y-96012000D01*
G04 #@! TO.N,Net-(U1-PadA27)*
X171599964Y-93472000D02*
X188976000Y-93472000D01*
X33020000Y-90170000D02*
X168297964Y-90170000D01*
X168297964Y-90170000D02*
X171599964Y-93472000D01*
G04 #@! TO.N,Net-(U1-PadA28)*
X169009976Y-87630000D02*
X172311976Y-90932000D01*
X33020000Y-87630000D02*
X169009976Y-87630000D01*
X172311976Y-90932000D02*
X188976000Y-90932000D01*
G04 #@! TO.N,Net-(U1-PadA29)*
X169721988Y-85090000D02*
X173023988Y-88392000D01*
X173023988Y-88392000D02*
X188976000Y-88392000D01*
X33020000Y-85090000D02*
X169721988Y-85090000D01*
G04 #@! TO.N,Net-(U1-PadA30)*
X173736000Y-85852000D02*
X188976000Y-85852000D01*
X170434000Y-82550000D02*
X173736000Y-85852000D01*
X33020000Y-82550000D02*
X170434000Y-82550000D01*
G04 #@! TO.N,Net-(U1-PadA32)*
X50800000Y-74930000D02*
X50800000Y-77470000D01*
X173681952Y-78232000D02*
X188976000Y-78232000D01*
X172969940Y-80772000D02*
X188976000Y-80772000D01*
X169667940Y-77470000D02*
X172969940Y-80772000D01*
X33020000Y-74930000D02*
X45720000Y-74930000D01*
X170379952Y-74930000D02*
X173681952Y-78232000D01*
X45720000Y-77470000D02*
X169667940Y-77470000D01*
X45720000Y-74930000D02*
X170379952Y-74930000D01*
X33020000Y-77470000D02*
X45720000Y-77470000D01*
G04 #@! TO.N,Net-(U1-PadA34)*
X171091964Y-72390000D02*
X174393964Y-75692000D01*
X174393964Y-75692000D02*
X188976000Y-75692000D01*
X33020000Y-72390000D02*
X171091964Y-72390000D01*
G04 #@! TO.N,Net-(U1-PadA35)*
X171803976Y-69850000D02*
X175105976Y-73152000D01*
X33020000Y-69850000D02*
X171803976Y-69850000D01*
X175105976Y-73152000D02*
X188976000Y-73152000D01*
G04 #@! TO.N,Net-(U1-PadA36)*
X172515988Y-67310000D02*
X175817988Y-70612000D01*
X33020000Y-67310000D02*
X172515988Y-67310000D01*
X175817988Y-70612000D02*
X188976000Y-70612000D01*
G04 #@! TO.N,Net-(U1-PadA37)*
X176530000Y-68072000D02*
X188976000Y-68072000D01*
X33020000Y-64770000D02*
X173228000Y-64770000D01*
X173228000Y-64770000D02*
X176530000Y-68072000D01*
G04 #@! TO.N,Net-(U1-PadA38)*
X33033520Y-62243520D02*
X174290549Y-62243520D01*
X174290549Y-62243520D02*
X177579029Y-65532000D01*
X177579029Y-65532000D02*
X188976000Y-65532000D01*
X33020000Y-62230000D02*
X33033520Y-62243520D01*
G04 #@! TO.N,Net-(U1-PadA39)*
X174989041Y-59690000D02*
X178291041Y-62992000D01*
X178291041Y-62992000D02*
X188976000Y-62992000D01*
X33020000Y-59690000D02*
X174989041Y-59690000D01*
G04 #@! TO.N,Net-(U1-PadA40)*
X175701053Y-57150000D02*
X179003053Y-60452000D01*
X33020000Y-57150000D02*
X175701053Y-57150000D01*
X179003053Y-60452000D02*
X188976000Y-60452000D01*
G04 #@! TO.N,Net-(U1-PadA42)*
X180427077Y-55372000D02*
X188976000Y-55372000D01*
X33020000Y-49530000D02*
X45720000Y-49530000D01*
X177837089Y-49530000D02*
X181139089Y-52832000D01*
X45720000Y-52070000D02*
X177125077Y-52070000D01*
X45720000Y-49530000D02*
X177837089Y-49530000D01*
X33020000Y-52070000D02*
X45720000Y-52070000D01*
X181139089Y-52832000D02*
X188976000Y-52832000D01*
X50800000Y-49530000D02*
X50800000Y-52070000D01*
X177125077Y-52070000D02*
X180427077Y-55372000D01*
G04 #@! TO.N,Net-(U1-PadA44)*
X178549101Y-46990000D02*
X181851101Y-50292000D01*
X33020000Y-46990000D02*
X178549101Y-46990000D01*
X181851101Y-50292000D02*
X188976000Y-50292000D01*
G04 #@! TO.N,Net-(U1-PadA45)*
X182563113Y-47752000D02*
X188976000Y-47752000D01*
X179261113Y-44450000D02*
X182563113Y-47752000D01*
X33020000Y-44450000D02*
X179261113Y-44450000D01*
G04 #@! TO.N,Net-(U1-PadA46)*
X183275125Y-45212000D02*
X188976000Y-45212000D01*
X33020000Y-41910000D02*
X179973125Y-41910000D01*
X179973125Y-41910000D02*
X183275125Y-45212000D01*
G04 #@! TO.N,Net-(U1-PadA47)*
X180685137Y-39370000D02*
X183987137Y-42672000D01*
X33020000Y-39370000D02*
X180685137Y-39370000D01*
X183987137Y-42672000D02*
X188976000Y-42672000D01*
G04 #@! TO.N,Net-(U1-PadA48)*
X184699149Y-40132000D02*
X188976000Y-40132000D01*
X33020000Y-36830000D02*
X181397149Y-36830000D01*
X181397149Y-36830000D02*
X184699149Y-40132000D01*
G04 #@! TO.N,Net-(U1-PadA49)*
X186690000Y-35052000D02*
X188976000Y-35052000D01*
X50800000Y-31750000D02*
X50800000Y-34290000D01*
X183388000Y-31750000D02*
X186690000Y-35052000D01*
X33020000Y-31750000D02*
X183388000Y-31750000D01*
X185411161Y-37592000D02*
X188976000Y-37592000D01*
X33020000Y-34290000D02*
X182109161Y-34290000D01*
X182109161Y-34290000D02*
X185411161Y-37592000D01*
G04 #@! TD*
M02*
