M48
; DRILL file {KiCad (6.0.5-0)} date 
; FORMAT={-:-/ absolute / metric / decimal}
; #@! TF.CreationDate,2022-09-11T11:11:43+09:00
; #@! TF.GenerationSoftware,Kicad,Pcbnew,(6.0.5-0)
; #@! TF.FileFunction,MixedPlating,1,2
FMAT,2
METRIC
; #@! TA.AperFunction,Plated,PTH,ViaDrill
T1C0.400
; #@! TA.AperFunction,Plated,PTH,ComponentDrill
T2C1.000
; #@! TA.AperFunction,NonPlated,NPTH,ComponentDrill
T3C3.200
; #@! TA.AperFunction,NonPlated,NPTH,ComponentDrill
T4C3.300
%
G90
G05
T1
X50.8Y-31.75
X50.8Y-34.29
X50.8Y-54.61
X50.8Y-105.41
X50.8Y-130.81
X50.8Y-156.21
T2
X188.976Y-35.052
X188.976Y-37.592
X188.976Y-40.132
X188.976Y-42.672
X188.976Y-45.212
X188.976Y-47.752
X188.976Y-50.292
X188.976Y-52.832
X188.976Y-55.372
X188.976Y-57.912
X188.976Y-60.452
X188.976Y-62.992
X188.976Y-65.532
X188.976Y-68.072
X188.976Y-70.612
X188.976Y-73.152
X188.976Y-75.692
X188.976Y-78.232
X188.976Y-80.772
X188.976Y-83.312
X188.976Y-85.852
X188.976Y-88.392
X188.976Y-90.932
X188.976Y-93.472
X188.976Y-96.012
X188.976Y-98.552
X188.976Y-101.092
X188.976Y-103.632
X188.976Y-106.172
X188.976Y-108.712
X188.976Y-111.252
X188.976Y-113.792
X188.976Y-116.332
X188.976Y-118.872
X188.976Y-121.412
X188.976Y-123.952
X188.976Y-126.492
X188.976Y-129.032
X188.976Y-131.572
X188.976Y-134.112
X188.976Y-136.652
X188.976Y-139.192
X188.976Y-141.732
X188.976Y-144.272
X188.976Y-146.812
X188.976Y-149.352
X188.976Y-151.892
X188.976Y-154.432
X188.976Y-156.972
X188.976Y-159.512
X194.056Y-35.052
X194.056Y-37.592
X194.056Y-40.132
X194.056Y-42.672
X194.056Y-45.212
X194.056Y-47.752
X194.056Y-50.292
X194.056Y-52.832
X194.056Y-55.372
X194.056Y-57.912
X194.056Y-60.452
X194.056Y-62.992
X194.056Y-65.532
X194.056Y-68.072
X194.056Y-70.612
X194.056Y-73.152
X194.056Y-75.692
X194.056Y-78.232
X194.056Y-80.772
X194.056Y-83.312
X194.056Y-85.852
X194.056Y-88.392
X194.056Y-90.932
X194.056Y-93.472
X194.056Y-96.012
X194.056Y-98.552
X194.056Y-101.092
X194.056Y-103.632
X194.056Y-106.172
X194.056Y-108.712
X194.056Y-111.252
X194.056Y-113.792
X194.056Y-116.332
X194.056Y-118.872
X194.056Y-121.412
X194.056Y-123.952
X194.056Y-126.492
X194.056Y-129.032
X194.056Y-131.572
X194.056Y-134.112
X194.056Y-136.652
X194.056Y-139.192
X194.056Y-141.732
X194.056Y-144.272
X194.056Y-146.812
X194.056Y-149.352
X194.056Y-151.892
X194.056Y-154.432
X194.056Y-156.972
X194.056Y-159.512
T3
X173.0Y-27.5
X173.0Y-167.5
T4
X191.516Y-25.782
X191.516Y-168.782
T0
M30
